<mxfile host="Electron" modified="2024-06-19T01:17:15.477Z" agent="Mozilla/5.0 (Windows NT 10.0; Win64; x64) AppleWebKit/537.36 (KHTML, like Gecko) draw.io/24.1.0 Chrome/120.0.6099.109 Electron/28.1.0 Safari/537.36" etag="SRbcJbeeLMmDItCS2x6V" version="24.1.0" type="device">
  <diagram name="ページ1" id="M-ppz8mPtNB-Uuw-Qpu0">
    <mxGraphModel dx="2037" dy="825" grid="1" gridSize="10" guides="1" tooltips="1" connect="1" arrows="1" fold="1" page="1" pageScale="1" pageWidth="827" pageHeight="1169" math="1" shadow="0">
      <root>
        <mxCell id="0" />
        <mxCell id="1" parent="0" />
        <mxCell id="3E89GnJy66qEpUuYG6Wc-1" value="" style="pointerEvents=1;verticalLabelPosition=bottom;shadow=0;dashed=0;align=center;html=1;verticalAlign=top;shape=mxgraph.electrical.capacitors.capacitor_1;direction=south;" vertex="1" parent="1">
          <mxGeometry x="330" y="310" width="60" height="100" as="geometry" />
        </mxCell>
        <mxCell id="3E89GnJy66qEpUuYG6Wc-10" style="edgeStyle=orthogonalEdgeStyle;rounded=0;orthogonalLoop=1;jettySize=auto;html=1;exitX=1;exitY=0.5;exitDx=0;exitDy=0;exitPerimeter=0;entryX=0;entryY=0.84;entryDx=0;entryDy=0;strokeColor=default;align=center;verticalAlign=middle;fontFamily=Helvetica;fontSize=11;fontColor=default;labelBackgroundColor=default;endArrow=none;endFill=0;" edge="1" parent="1" source="3E89GnJy66qEpUuYG6Wc-2" target="3E89GnJy66qEpUuYG6Wc-3">
          <mxGeometry relative="1" as="geometry" />
        </mxCell>
        <mxCell id="3E89GnJy66qEpUuYG6Wc-2" value="" style="verticalLabelPosition=bottom;shadow=0;dashed=0;align=center;fillColor=strokeColor;html=1;verticalAlign=top;strokeWidth=1;shape=mxgraph.electrical.miscellaneous.monocell_battery;direction=north;" vertex="1" parent="1">
          <mxGeometry x="170" y="310" width="60" height="100" as="geometry" />
        </mxCell>
        <mxCell id="3E89GnJy66qEpUuYG6Wc-3" value="" style="html=1;shape=mxgraph.electrical.electro-mechanical.switchDisconnector;aspect=fixed;elSwitchState=off;" vertex="1" parent="1">
          <mxGeometry x="243" y="263" width="75" height="20" as="geometry" />
        </mxCell>
        <mxCell id="3E89GnJy66qEpUuYG6Wc-4" value="" style="html=1;shape=mxgraph.electrical.electro-mechanical.switchDisconnector;aspect=fixed;elSwitchState=off;" vertex="1" parent="1">
          <mxGeometry x="403" y="263" width="75" height="20" as="geometry" />
        </mxCell>
        <mxCell id="3E89GnJy66qEpUuYG6Wc-5" value="" style="pointerEvents=1;verticalLabelPosition=bottom;shadow=0;dashed=0;align=center;html=1;verticalAlign=top;shape=mxgraph.electrical.signal_sources.signal_ground;" vertex="1" parent="1">
          <mxGeometry x="337.4999999999999" y="470" width="45" height="30" as="geometry" />
        </mxCell>
        <mxCell id="3E89GnJy66qEpUuYG6Wc-6" value="" style="shape=waypoint;sketch=0;fillStyle=solid;size=6;pointerEvents=1;points=[];fillColor=none;resizable=0;rotatable=0;perimeter=centerPerimeter;snapToPoint=1;fontFamily=Helvetica;fontSize=11;fontColor=default;labelBackgroundColor=default;" vertex="1" parent="1">
          <mxGeometry x="350" y="430" width="20" height="20" as="geometry" />
        </mxCell>
        <mxCell id="3E89GnJy66qEpUuYG6Wc-7" style="edgeStyle=orthogonalEdgeStyle;rounded=0;orthogonalLoop=1;jettySize=auto;html=1;exitX=1;exitY=0.5;exitDx=0;exitDy=0;exitPerimeter=0;entryX=0.633;entryY=-0.1;entryDx=0;entryDy=0;entryPerimeter=0;endArrow=none;endFill=0;" edge="1" parent="1" source="3E89GnJy66qEpUuYG6Wc-1" target="3E89GnJy66qEpUuYG6Wc-6">
          <mxGeometry relative="1" as="geometry" />
        </mxCell>
        <mxCell id="3E89GnJy66qEpUuYG6Wc-8" style="edgeStyle=orthogonalEdgeStyle;rounded=0;orthogonalLoop=1;jettySize=auto;html=1;exitX=0;exitY=0.5;exitDx=0;exitDy=0;exitPerimeter=0;entryX=-0.117;entryY=0.35;entryDx=0;entryDy=0;entryPerimeter=0;strokeColor=default;align=center;verticalAlign=middle;fontFamily=Helvetica;fontSize=11;fontColor=default;labelBackgroundColor=default;endArrow=none;endFill=0;" edge="1" parent="1" source="3E89GnJy66qEpUuYG6Wc-2" target="3E89GnJy66qEpUuYG6Wc-6">
          <mxGeometry relative="1" as="geometry">
            <Array as="points">
              <mxPoint x="200" y="440" />
            </Array>
          </mxGeometry>
        </mxCell>
        <mxCell id="3E89GnJy66qEpUuYG6Wc-9" style="edgeStyle=orthogonalEdgeStyle;rounded=0;orthogonalLoop=1;jettySize=auto;html=1;exitX=0.5;exitY=0;exitDx=0;exitDy=0;exitPerimeter=0;entryX=0.5;entryY=0.95;entryDx=0;entryDy=0;entryPerimeter=0;strokeColor=default;align=center;verticalAlign=middle;fontFamily=Helvetica;fontSize=11;fontColor=default;labelBackgroundColor=default;endArrow=none;endFill=0;" edge="1" parent="1" source="3E89GnJy66qEpUuYG6Wc-5" target="3E89GnJy66qEpUuYG6Wc-6">
          <mxGeometry relative="1" as="geometry" />
        </mxCell>
        <mxCell id="3E89GnJy66qEpUuYG6Wc-12" value="" style="shape=waypoint;sketch=0;fillStyle=solid;size=6;pointerEvents=1;points=[];fillColor=none;resizable=0;rotatable=0;perimeter=centerPerimeter;snapToPoint=1;fontFamily=Helvetica;fontSize=11;fontColor=default;labelBackgroundColor=default;" vertex="1" parent="1">
          <mxGeometry x="350" y="270" width="20" height="20" as="geometry" />
        </mxCell>
        <mxCell id="3E89GnJy66qEpUuYG6Wc-13" style="edgeStyle=orthogonalEdgeStyle;rounded=0;orthogonalLoop=1;jettySize=auto;html=1;exitX=0;exitY=0.5;exitDx=0;exitDy=0;exitPerimeter=0;entryX=0.433;entryY=1.033;entryDx=0;entryDy=0;entryPerimeter=0;strokeColor=default;align=center;verticalAlign=middle;fontFamily=Helvetica;fontSize=11;fontColor=default;labelBackgroundColor=default;endArrow=none;endFill=0;" edge="1" parent="1" source="3E89GnJy66qEpUuYG6Wc-1" target="3E89GnJy66qEpUuYG6Wc-12">
          <mxGeometry relative="1" as="geometry" />
        </mxCell>
        <mxCell id="3E89GnJy66qEpUuYG6Wc-14" style="edgeStyle=orthogonalEdgeStyle;rounded=0;orthogonalLoop=1;jettySize=auto;html=1;exitX=1;exitY=0.84;exitDx=0;exitDy=0;entryX=-0.05;entryY=0.45;entryDx=0;entryDy=0;entryPerimeter=0;strokeColor=default;align=center;verticalAlign=middle;fontFamily=Helvetica;fontSize=11;fontColor=default;labelBackgroundColor=default;endArrow=none;endFill=0;" edge="1" parent="1" source="3E89GnJy66qEpUuYG6Wc-3" target="3E89GnJy66qEpUuYG6Wc-12">
          <mxGeometry relative="1" as="geometry" />
        </mxCell>
        <mxCell id="3E89GnJy66qEpUuYG6Wc-15" style="edgeStyle=orthogonalEdgeStyle;rounded=0;orthogonalLoop=1;jettySize=auto;html=1;exitX=0;exitY=0.84;exitDx=0;exitDy=0;entryX=1.083;entryY=0.433;entryDx=0;entryDy=0;entryPerimeter=0;strokeColor=default;align=center;verticalAlign=middle;fontFamily=Helvetica;fontSize=11;fontColor=default;labelBackgroundColor=default;endArrow=none;endFill=0;" edge="1" parent="1" source="3E89GnJy66qEpUuYG6Wc-4" target="3E89GnJy66qEpUuYG6Wc-12">
          <mxGeometry relative="1" as="geometry" />
        </mxCell>
        <mxCell id="3E89GnJy66qEpUuYG6Wc-20" style="edgeStyle=orthogonalEdgeStyle;rounded=0;orthogonalLoop=1;jettySize=auto;html=1;exitX=1;exitY=0.5;exitDx=0;exitDy=0;exitPerimeter=0;entryX=0;entryY=0.5;entryDx=0;entryDy=0;strokeColor=default;align=center;verticalAlign=middle;fontFamily=Helvetica;fontSize=11;fontColor=default;labelBackgroundColor=default;endArrow=none;endFill=0;" edge="1" parent="1" source="3E89GnJy66qEpUuYG6Wc-16" target="3E89GnJy66qEpUuYG6Wc-19">
          <mxGeometry relative="1" as="geometry" />
        </mxCell>
        <mxCell id="3E89GnJy66qEpUuYG6Wc-16" value="" style="pointerEvents=1;verticalLabelPosition=bottom;shadow=0;dashed=0;align=center;html=1;verticalAlign=top;shape=mxgraph.electrical.resistors.resistor_1;fontFamily=Helvetica;fontSize=11;fontColor=default;labelBackgroundColor=default;" vertex="1" parent="1">
          <mxGeometry x="470" y="269.75" width="100" height="20" as="geometry" />
        </mxCell>
        <mxCell id="3E89GnJy66qEpUuYG6Wc-18" style="edgeStyle=orthogonalEdgeStyle;rounded=0;orthogonalLoop=1;jettySize=auto;html=1;exitX=1;exitY=0.84;exitDx=0;exitDy=0;entryX=0;entryY=0.5;entryDx=0;entryDy=0;entryPerimeter=0;strokeColor=default;align=center;verticalAlign=middle;fontFamily=Helvetica;fontSize=11;fontColor=default;labelBackgroundColor=default;endArrow=none;endFill=0;" edge="1" parent="1" source="3E89GnJy66qEpUuYG6Wc-4" target="3E89GnJy66qEpUuYG6Wc-16">
          <mxGeometry relative="1" as="geometry" />
        </mxCell>
        <mxCell id="3E89GnJy66qEpUuYG6Wc-19" value="" style="verticalLabelPosition=bottom;shadow=0;dashed=0;align=center;html=1;verticalAlign=top;strokeWidth=1;shape=ellipse;perimeter=ellipsePerimeter;fontFamily=Helvetica;fontSize=11;fontColor=default;labelBackgroundColor=default;aspect=fixed;" vertex="1" parent="1">
          <mxGeometry x="596" y="276" width="8" height="8" as="geometry" />
        </mxCell>
        <mxCell id="3E89GnJy66qEpUuYG6Wc-21" value="&lt;font style=&quot;font-size: 21px;&quot;&gt;`1 nF`&lt;/font&gt;" style="text;html=1;align=center;verticalAlign=middle;resizable=0;points=[];autosize=1;strokeColor=none;fillColor=none;fontFamily=Helvetica;fontSize=11;fontColor=default;labelBackgroundColor=default;" vertex="1" parent="1">
          <mxGeometry x="370" y="370" width="80" height="40" as="geometry" />
        </mxCell>
        <mxCell id="3E89GnJy66qEpUuYG6Wc-22" value="&lt;font style=&quot;font-size: 21px;&quot;&gt;`+-1 k\Omega`&lt;/font&gt;" style="text;html=1;align=center;verticalAlign=middle;resizable=0;points=[];autosize=1;strokeColor=none;fillColor=none;fontFamily=Helvetica;fontSize=11;fontColor=default;labelBackgroundColor=default;" vertex="1" parent="1">
          <mxGeometry x="160" y="370" width="160" height="40" as="geometry" />
        </mxCell>
        <mxCell id="3E89GnJy66qEpUuYG6Wc-23" value="&lt;font style=&quot;font-size: 21px;&quot;&gt;`1.5 k\Omega`&lt;/font&gt;" style="text;html=1;align=center;verticalAlign=middle;resizable=0;points=[];autosize=1;strokeColor=none;fillColor=none;fontFamily=Helvetica;fontSize=11;fontColor=default;labelBackgroundColor=default;" vertex="1" parent="1">
          <mxGeometry x="440" y="300" width="160" height="40" as="geometry" />
        </mxCell>
        <mxCell id="3E89GnJy66qEpUuYG6Wc-24" value="&lt;font style=&quot;font-size: 21px;&quot;&gt;接触抵抗&lt;/font&gt;" style="text;html=1;align=center;verticalAlign=middle;resizable=0;points=[];autosize=1;strokeColor=none;fillColor=none;fontFamily=Helvetica;fontSize=11;fontColor=default;labelBackgroundColor=default;" vertex="1" parent="1">
          <mxGeometry x="460" y="229.75" width="110" height="40" as="geometry" />
        </mxCell>
      </root>
    </mxGraphModel>
  </diagram>
</mxfile>
